<?xml version="1.0" encoding="iso-8859-1"?>
<!-- Generator: Adobe Illustrator 19.0.0, SVG Export Plug-In . SVG Version: 6.00 Build 0)  -->
<svg version="1.1" id="Capa_1" xmlns="http://www.w3.org/2000/svg" xmlns:xlink="http://www.w3.org/1999/xlink" x="0px" y="0px"
	fill="#41a2f9" viewBox="0 0 509.856 509.856" style="enable-background:new 0 0 509.856 509.856;" xml:space="preserve">
<g>
	<g>
		<path d="M478.827,222.928H74.56V61.605c-2.987-11.019,6.4-20.693,17.067-20.011h31.04c7.467-0.683,9.472,9.024,10.005,19.051
			c-11.861,8.533-26.187,35.819-26.187,35.819v30.464c0,5.891,4.776,10.667,10.667,10.667h74.528
			c5.891,0,10.667-4.776,10.667-10.667V98.352c0-20.555-16.277-39.467-36.267-44.587c0.012-24.383-19.745-44.159-44.128-44.171
			H88.075c-24.651,0-45.493,20.267-45.493,44.16v169.173h-9.717C14.432,222.928,0,241.669,0,265.595
			c0,18.592,8.757,33.92,21.333,39.893v28.981c0,43.413,18.944,80.693,49.504,104.811l-17.067,34.88l-12.821,26.101h28.576
			l2.891-5.899l20.267-41.419c19.939,10.14,42.004,15.391,64.373,15.317H365.92c18.558-0.004,36.933-3.672,54.069-10.795
			l18.059,36.896l2.88,5.899h28.608c0.063-1.588-0.267-3.167-0.96-4.597l-10.059-20.544l-16.437-33.579
			c29.429-23.221,47.669-59.125,47.669-100.928v-38.187c11.84-5.749,20.107-20.512,20.107-38.4
			C509.867,240.976,496.235,222.928,478.827,222.928z M42.56,276.261H31.893v-32H42.56V276.261z M479.083,255.568v9.355v11.339
			H74.528v-32h404.587L479.083,255.568z"/>
	</g>
</g>
<g>
</g>
<g>
</g>
<g>
</g>
<g>
</g>
<g>
</g>
<g>
</g>
<g>
</g>
<g>
</g>
<g>
</g>
<g>
</g>
<g>
</g>
<g>
</g>
<g>
</g>
<g>
</g>
<g>
</g>
</svg>
