<svg id="Capa_1" fill="#41a2f9" enable-background="new 0 0 512 512" height="512" viewBox="0 0 512 512" width="512" xmlns="http://www.w3.org/2000/svg"><g><path fill="#41a2f9" d="m463.783 481.634v-231.059l26.958 26.958 21.213-21.213-64.998-64.998v-151.036h-90v61.037l-100.956-100.957-255.954 255.954 21.213 21.213 26.958-26.958v231.059h-48.217v30h512v-30zm-76.826-411.348h30v91.037l-30-30zm-308.74 150.289 177.783-177.783 177.783 177.783v261.059h-355.566z"/><path d="m135.5 427.46h90v-170h-90zm30-30v-50h30v50zm30-110v30h-30v-30z"/><path d="m286.5 257.46v170h90v-170zm60 30v30h-30v-30zm-30 110v-50h30v50z"/><path d="m301 169.155c0-24.813-20.187-45-45-45s-45 20.187-45 45 20.187 45 45 45 45-20.186 45-45zm-45 15c-8.271 0-15-6.729-15-15s6.729-15 15-15 15 6.729 15 15-6.729 15-15 15z"/></g></svg>