<svg id="_x31__x2C_5_px" fill="#fff" enable-background="new 0 0 24 24" height="512" viewBox="0 0 24 24" width="512" xmlns="http://www.w3.org/2000/svg">
    <path
        d="m20.5 24c-1.93 0-3.5-1.57-3.5-3.5v-5.25c0-1.24 1.01-2.25 2.25-2.25s2.25 1.01 2.25 2.25v5c0 .414-.336.75-.75.75s-.75-.336-.75-.75v-5c0-.413-.337-.75-.75-.75s-.75.337-.75.75v5.25c0 1.103.897 2 2 2s2-.897 2-2v-6.75c0-.414.336-.75.75-.75s.75.336.75.75v6.75c0 1.93-1.57 3.5-3.5 3.5z"
    />
    <path
        d="m14.81 22h-12.06c-1.517 0-2.75-1.233-2.75-2.75v-16.5c0-1.517 1.233-2.75 2.75-2.75h12.5c1.517 0 2.75 1.233 2.75 2.75v8.48c0 .414-.336.75-.75.75s-.75-.336-.75-.75v-8.48c0-.689-.561-1.25-1.25-1.25h-12.5c-.689 0-1.25.561-1.25 1.25v16.5c0 .689.561 1.25 1.25 1.25h12.06c.414 0 .75.336.75.75s-.336.75-.75.75z"
    />
    <path d="m14.25 15h-10.5c-.414 0-.75-.336-.75-.75s.336-.75.75-.75h10.5c.414 0 .75.336.75.75s-.336.75-.75.75z" />
    <path d="m14.25 11h-10.5c-.414 0-.75-.336-.75-.75s.336-.75.75-.75h10.5c.414 0 .75.336.75.75s-.336.75-.75.75z" />
    <path d="m9.25 7h-5.5c-.414 0-.75-.336-.75-.75s.336-.75.75-.75h5.5c.414 0 .75.336.75.75s-.336.75-.75.75z" />
</svg>