<svg height="384pt" fill="#fff" viewBox="0 -40 384 384" width="384pt" xmlns="http://www.w3.org/2000/svg"><path d="m379.273438 4.726562c-2.351563-2.34375-5.25-3.804687-8.289063-4.382812-1.0625-.222656-2.144531-.34375-3.222656-.34375h-351.523438c-.039062 0-.078125.0078125-.117187.0078125-4.136719-.03125-8.28125 1.5195315-11.433594 4.6718755-3.160156 3.160156-4.703125 7.304687-4.671875 11.441406-.0078125.046875-.015625.078125-.015625.117187v271.523438c0 .0625.0234375.125.0234375.199219 0 4.078124 1.5703125 8.160156 4.6796875 11.296874 2.351563 2.367188 5.273437 3.820313 8.328125 4.398438 1.058594.214844 2.128906.34375 3.207031.34375h351.523438c4.238281 0 8.476562-1.769531 11.476562-4.769531s4.761719-7.230469 4.761719-11.46875v-271.523438c0-.070312-.023438-.132812-.023438-.207031 0-4.085938-1.578124-8.175781-4.703124-11.304688zm-182.800782 145.554688c-2.503906 2.3125-6.433594 2.292969-8.992187-.050781l-130.089844-118.230469h269.226563zm-164.472656-98.105469 103.960938 94.488281-103.960938 102.96875zm127.671875 116.03125 6.230469 5.664063c4.96875 4.554687 10.808594 7.441406 16.890625 8.960937.75.183594 1.480469.496094 2.238281.632813.847656.160156 1.710938.136718 2.570312.238281 1.46875.167969 2.933594.410156 4.40625.410156.230469 0 .464844-.058593.695313-.066406 9.082031-.160156 18.113281-3.503906 25.335937-10.125l6.28125-5.707031 104.792969 103.785156h-274.226562zm88.367187-21.550781 103.960938-94.488281v197.464843zm0 0"/></svg>