<?xml version="1.0" encoding="iso-8859-1"?>
<!-- Generator: Adobe Illustrator 19.0.0, SVG Export Plug-In . SVG Version: 6.00 Build 0)  -->
<svg version="1.1" id="Capa_1" xmlns="http://www.w3.org/2000/svg" xmlns:xlink="http://www.w3.org/1999/xlink" x="0px" y="0px"
	fill="#41a2f9" viewBox="0 0 58 58" style="enable-background:new 0 0 58 58;" xml:space="preserve">
<g>
	<g>
		<path d="M57,46.987H46.309l2.655-9.737c0.078-0.288,0.024-0.595-0.147-0.839l-19-27c-0.375-0.532-1.261-0.532-1.636,0l-19,27
			c-0.171,0.244-0.225,0.551-0.147,0.839l2.655,9.737H1c-0.552,0-1,0.448-1,1s0.448,1,1,1h12c0.047,0,0.086-0.02,0.131-0.027
			c0.044-0.006,0.088,0.003,0.132-0.009c0.023-0.006,0.038-0.022,0.06-0.03c0.066-0.023,0.123-0.056,0.182-0.092
			c0.054-0.032,0.106-0.062,0.153-0.103c0.048-0.043,0.085-0.093,0.124-0.144c0.039-0.051,0.077-0.099,0.106-0.156
			c0.028-0.055,0.042-0.114,0.059-0.174c0.019-0.066,0.036-0.13,0.04-0.2C13.988,48.03,14,48.01,14,47.987
			c0-0.046-0.02-0.085-0.026-0.13c-0.006-0.045,0.003-0.088-0.009-0.133l-2.877-10.546L29,11.725l17.912,25.453l-2.876,10.546
			c-0.012,0.045-0.003,0.088-0.009,0.133C44.02,47.901,44,47.941,44,47.987c0,0.023,0.012,0.043,0.013,0.065
			c0.005,0.07,0.022,0.133,0.04,0.2c0.017,0.061,0.032,0.119,0.059,0.175c0.028,0.057,0.067,0.105,0.105,0.156
			c0.039,0.051,0.076,0.101,0.124,0.144c0.046,0.041,0.099,0.07,0.152,0.103c0.059,0.036,0.116,0.069,0.182,0.092
			c0.022,0.008,0.037,0.024,0.06,0.03c0.088,0.024,0.177,0.036,0.264,0.036c0.001,0,0.002,0,0.003,0H57c0.552,0,1-0.448,1-1
			S57.552,46.987,57,46.987z"/>
		<path d="M35,33.987H23c-0.552,0-1,0.448-1,1v12c0,0.552,0.448,1,1,1h12c0.552,0,1-0.448,1-1v-12
			C36,34.435,35.552,33.987,35,33.987z M34,35.987v4h-4v-4H34z M28,35.987v4h-4v-4H28z M24,41.987h4v4h-4V41.987z M30,45.987v-4h4v4
			H30z"/>
	</g>
</g>
<g>
</g>
<g>
</g>
<g>
</g>
<g>
</g>
<g>
</g>
<g>
</g>
<g>
</g>
<g>
</g>
<g>
</g>
<g>
</g>
<g>
</g>
<g>
</g>
<g>
</g>
<g>
</g>
<g>
</g>
</svg>
