<svg width="511.997" height="511.997" xmlns="http://www.w3.org/2000/svg">

 <g>
  <title>background</title>
  <rect fill="none" id="canvas_background" height="602" width="802" y="-1" x="-1"/>
 </g>
 <g>
  <title>Layer 1</title>
  <g stroke="null" id="svg_1">
   <g stroke="null" id="svg_2">
    <g stroke="null" id="svg_3">
     <path stroke="null" id="svg_4" d="m229.34555,337.80051l-36.76351,36.76351c-15.2414,15.2414 -39.92367,15.2414 -55.15227,0.00305c-15.23165,-15.23165 -15.23165,-39.91636 -0.00305,-55.14496l73.53982,-73.53982c15.2286,-15.22921 39.91331,-15.22921 55.14191,0c5.07661,5.07661 13.30789,5.07661 18.3845,0c5.07661,-5.07661 5.07661,-13.30789 0,-18.3845c-25.38243,-25.38243 -66.52848,-25.38243 -91.91091,0l-73.53921,73.53921c-25.38243,25.38243 -25.38243,66.52848 0,91.91091c25.37938,25.39583 66.52848,25.39583 91.92432,0l36.76351,-36.76351c5.07661,-5.07661 5.07661,-13.30789 0,-18.3845s-13.3085,-5.076 -18.38511,0.00061z"/>
     <path stroke="null" id="svg_5" d="m392.95417,119.03901c-25.38243,-25.38243 -66.54189,-25.38243 -91.92432,0l-44.10817,44.10817c-5.07661,5.07661 -5.07661,13.30789 0,18.3845c5.07661,5.07661 13.30789,5.07661 18.3845,0l44.10817,-44.10817c15.2286,-15.22921 39.92611,-15.22921 55.15532,0c15.2286,15.2286 15.2286,39.91331 0,55.14191l-80.88448,80.88509c-15.22921,15.22921 -39.91331,15.22921 -55.14191,0c-5.07661,-5.07661 -13.30789,-5.07661 -18.3845,0s-5.07661,13.30789 0,18.3845c25.38243,25.38243 66.52848,25.38243 91.91091,0l80.88448,-80.88448c25.38243,-25.38243 25.38243,-66.52909 0,-91.91152z"/>
    </g>
   </g>
  </g>
  <g id="svg_6"/>
  <g id="svg_7"/>
  <g id="svg_8"/>
  <g id="svg_9"/>
  <g id="svg_10"/>
  <g id="svg_11"/>
  <g id="svg_12"/>
  <g id="svg_13"/>
  <g id="svg_14"/>
  <g id="svg_15"/>
  <g id="svg_16"/>
  <g id="svg_17"/>
  <g id="svg_18"/>
  <g id="svg_19"/>
  <g id="svg_20"/>
 </g>
</svg>