<svg height="512" viewBox="0 0 128 128" width="512" xmlns="http://www.w3.org/2000/svg"><g><path d="m112.1 24.932h-96.2a1.75 1.75 0 0 0 -1.75 1.75v74.636a1.75 1.75 0 0 0 1.75 1.75h82.1a1.749 1.749 0 0 0 1.237-.512l14.1-14.1a1.75 1.75 0 0 0 .513-1.237v-60.537a1.75 1.75 0 0 0 -1.75-1.75zm-1.75 3.5v13.417h-92.7v-13.417zm-92.7 16.917h92.7v40.12h-12.35a1.749 1.749 0 0 0 -1.75 1.75v12.349h-78.6zm90.224 43.62-8.124 8.125v-8.125z"/><path d="m26.9 38.042a2.9 2.9 0 1 0 -2.9-2.9 2.9 2.9 0 0 0 2.9 2.9z"/><path d="m38.6 38.042a2.9 2.9 0 1 0 -2.9-2.9 2.9 2.9 0 0 0 2.9 2.9z"/><path d="m50.291 38.042a2.9 2.9 0 1 0 -2.9-2.9 2.9 2.9 0 0 0 2.9 2.9z"/><path d="m41.339 49.744a17.645 17.645 0 0 0 -11 31.454 1.763 1.763 0 0 0 .385.287 17.53 17.53 0 0 0 21.228 0 1.742 1.742 0 0 0 .391-.292 17.645 17.645 0 0 0 -11-31.452zm-7.732 29.51a8.194 8.194 0 0 1 15.464 0 14.088 14.088 0 0 1 -15.464 0zm2.438-14.275a5.294 5.294 0 1 1 5.294 5.293 5.3 5.3 0 0 1 -5.294-5.293zm15.812 11.874a11.777 11.777 0 0 0 -4.892-5.124 8.794 8.794 0 1 0 -11.253 0 11.769 11.769 0 0 0 -4.891 5.124 14.161 14.161 0 1 1 21.036 0z"/><path d="m66.793 56.935h15.761a1.75 1.75 0 0 0 0-3.5h-15.761a1.75 1.75 0 0 0 0 3.5z"/><path d="m66.793 68h36.884a1.75 1.75 0 1 0 0-3.5h-36.884a1.75 1.75 0 0 0 0 3.5z"/><path d="m103.677 79.065a1.75 1.75 0 1 0 0-3.5h-36.884a1.75 1.75 0 0 0 0 3.5z"/></g></svg>