<?xml version="1.0" encoding="iso-8859-1"?>
<!-- Generator: Adobe Illustrator 19.0.0, SVG Export Plug-In . SVG Version: 6.00 Build 0)  -->
<svg version="1.1" id="Layer_1" xmlns="http://www.w3.org/2000/svg" xmlns:xlink="http://www.w3.org/1999/xlink" x="0px" y="0px"
	fill="#41a2f9" viewBox="0 0 512.001 512.001" style="enable-background:new 0 0 512.001 512.001;" xml:space="preserve">
<g>
	<g>
		<path d="M431.17,53.911c-9.845-0.265-19.211,2.946-26.722,9.113c-4.498-17.169-19.807-30.172-37.952-30.67
			c-9.274-0.252-18.117,2.582-25.389,8.063c-0.357-21.755-17.842-39.812-39.285-40.399c-11.165-0.31-21.686,3.86-29.61,11.721
			c-7.807,7.746-11.942,18.458-11.942,29.455v92.298c-23.828-23.484-56.253-36.824-90.279-36.471
			c-8.784,0.092-17.563,1.104-26.094,3.008c-10.823,2.417-19.588,9.662-24.047,19.879c-4.514,10.342-3.846,21.856,1.832,31.592
			c2.352,4.031,5.391,7.453,8.885,10.188H90.192c-9.01,0-16.314,7.304-16.314,16.314v16.147c-1.149-0.106-2.31-0.143-3.472-0.114
			c-15.419,0.402-28.083,12.774-28.829,28.166c-0.398,8.2,2.494,15.981,8.142,21.909c5.568,5.844,13.392,9.197,21.463,9.197
			c0.901,0,1.8-0.042,2.695-0.124v16.147c0,9.01,7.304,16.314,16.314,16.314h26.11c-2.006,2.045-3.794,4.358-5.292,6.928
			c-5.304,9.094-6.26,19.98-2.62,29.866c3.598,9.775,11.273,17.35,21.056,20.78c13.439,4.713,27.536,7.101,41.898,7.101
			c5.912,0,11.509-0.488,17.101-1.493c2.468-0.443,5.036-0.267,7.329,0.749c4.653,2.064,7.453,6.522,7.453,11.356v125.387
			c0,14.185,11.499,25.685,25.685,25.685h180.378c14.185,0,25.685-11.499,25.685-25.685v-45.133c0-4.465-3.62-8.084-8.084-8.084
			c-4.465,0-8.084,3.62-8.084,8.084v45.133c0,5.256-4.261,9.517-9.517,9.517H228.91c-5.256,0-9.517-4.261-9.517-9.517V361.488
			c0-7.4-2.616-14.649-7.683-20.041c-5.516-5.87-13.036-9.039-20.792-9.039c-1.706,0-3.424,0.154-5.134,0.466
			c-4.705,0.857-9.428,1.274-14.442,1.274c-12.536,0-24.833-2.083-36.548-6.19c-5.213-1.827-9.307-5.876-11.233-11.107
			c-1.966-5.342-1.452-11.223,1.414-16.134c4.551-7.801,13.91-11.332,22.252-8.398c9.18,3.23,18.891,4.571,28.755,3.958
			c17.134-1.064,33.446-8.255,45.8-20.174c15.269-14.733,23.192-34.685,22.243-55.787c-0.807-17.95-8.283-34.932-21.048-47.817
			c-12.768-12.886-29.68-20.517-47.621-21.485c-6.562-0.354-13.106,0.163-19.453,1.538c-7.902,1.713-16.042-1.985-20.253-9.202
			c-3.05-5.229-3.407-11.417-0.981-16.978c2.372-5.435,7.02-9.286,12.751-10.566c7.431-1.659,15.081-2.541,22.739-2.621
			c36.278-0.359,70.453,17.089,91.436,46.741c1.662,2.349,4.371,3.827,7.241,3.633c4.4-0.297,7.602-3.902,7.602-8.076V40.999
			c0-6.887,2.668-13.596,7.697-18.301c4.688-4.385,10.788-6.695,17.243-6.52c12.994,0.357,23.565,11.533,23.565,24.916v139.115
			c0,4.427,3.412,8.287,7.835,8.419c4.578,0.137,8.333-3.533,8.333-8.081V73.273c0-6.436,2.328-12.732,6.803-17.358
			c4.791-4.954,11.267-7.583,18.137-7.4c12.994,0.357,23.565,11.533,23.565,24.916v128.336c0,4.427,3.412,8.287,7.835,8.419
			c4.578,0.137,8.333-3.533,8.333-8.081V94.958c0-6.785,2.554-13.42,7.444-18.124c4.719-4.54,10.906-6.936,17.496-6.761
			c12.994,0.357,23.565,11.534,23.565,24.916v193.337c0,23.366-11.379,45.956-31.551,57.747c-2.459,1.437-3.935,4.096-3.935,6.937
			v52.883c0,4.465,3.62,8.084,8.084,8.084c4.465,0,8.084-3.62,8.084-8.084v-48.491c21.998-15.163,35.486-40.602,35.486-67.471
			V94.988C470.46,72.933,452.835,54.505,431.17,53.911z M183.008,212.018c2.505-1.443,4.047-4.113,4.047-7.004V178.72
			c0-3.869-1.311-7.429-3.492-10.292c20.104,4.509,36.407,19.973,42.146,39.606c1.219,4.17,1.962,8.527,2.162,13.007
			c0.044,0.977,0.064,1.951,0.059,2.921c-0.005,1.138-0.054,2.27-0.126,3.398c-0.844,13.273-6.242,25.662-15.553,35.402
			c-7.907,8.272-17.835,13.805-28.717,16.174c2.199-2.869,3.521-6.445,3.521-10.331v-26.292c0-2.891-1.544-5.561-4.047-7.004
			c-2.504-1.442-5.588-1.439-8.089,0.009c-2.084,1.207-4.346,1.818-6.727,1.818c-3.723,0-7.187-1.485-9.757-4.182
			c-2.566-2.695-3.88-6.237-3.699-9.974c0.333-6.872,6.211-12.607,13.101-12.787c2.459-0.065,4.922,0.563,7.082,1.814
			C177.42,213.459,180.506,213.461,183.008,212.018z M170.021,177.853c0.479,0,0.868,0.389,0.868,0.868v15.425
			c-1.15-0.106-2.311-0.143-3.472-0.114c-15.419,0.402-28.083,12.774-28.829,28.167c-0.398,8.2,2.494,15.981,8.142,21.909
			c5.569,5.845,13.392,9.198,21.464,9.198c0.901,0,1.8-0.042,2.695-0.124v15.425c0,0.479-0.389,0.868-0.868,0.868H90.192v0.001
			c-0.081,0-0.146-0.066-0.146-0.146v-27.014c0-2.891-1.544-5.561-4.048-7.004c-1.249-0.72-2.643-1.08-4.037-1.08
			c-1.399,0-2.799,0.363-4.052,1.089c-2.084,1.207-4.346,1.818-6.727,1.818c-3.723,0-7.187-1.485-9.757-4.182
			c-2.566-2.695-3.88-6.237-3.699-9.974c0.333-6.872,6.211-12.607,13.101-12.787c2.458-0.065,4.923,0.563,7.082,1.814
			c2.502,1.45,5.587,1.453,8.09,0.01c2.505-1.443,4.047-4.113,4.047-7.004v-27.015c0-0.081,0.066-0.146,0.146-0.146H170.021z"/>
	</g>
</g>
<g>
</g>
<g>
</g>
<g>
</g>
<g>
</g>
<g>
</g>
<g>
</g>
<g>
</g>
<g>
</g>
<g>
</g>
<g>
</g>
<g>
</g>
<g>
</g>
<g>
</g>
<g>
</g>
<g>
</g>
</svg>
