<svg xmlns="http://www.w3.org/2000/svg" width="175" height="1573.651" viewBox="0 0 175 1573.651">
  <defs>
    <style>
      .cls-1 {
        fill: #f3f9ff;
        fill-rule: evenodd;
      }
    </style>
  </defs>
  <path id="Ellipse_5_copy_3" data-name="Ellipse 5 copy 3" class="cls-1" d="M-160.178,941.773C-80.733,998.091-11.449,1062.94,42.453,1138.46a705.867,705.867,0,0,1,113.586,250.36c42.742,181.21,12.3,368.68-81.824,528.94-46.449,80.4-112.986,148.86-187.179,203.97-74.975,55.25-157.6,97.16-254.394,127.44-96.213,30.01-206.561,48.39-323.507,50.36-115,1.3-236.592-13.8-310.355-66.15-76.2-51.58-92.38-136.6-87.07-242.84,5.57-105.95,15.48-229.03-11.75-347.98-23.76-119.6-83.48-234.86-122.66-343.04-18.9-54.26-30.86-107.14-27.99-158.77,2.46-51.56,19.74-101.86,49.7-149.334,62.31-94.368,171.29-169.984,269.575-213.749,100.815-44.749,190.936-57.648,274.065-49.343,83.625,8.171,160.221,37.561,245.048,74.442,83.262,37.606,174.757,82.7,252.124,139.007h0Z" transform="translate(0 -725.969)"/>
</svg>
