<svg xmlns="http://www.w3.org/2000/svg" width="226.09" height="1573.651" viewBox="0 0 226.09 1573.651">
  <defs>
    <style>
      .cls-1 {
        fill: #f3f9ff;
        fill-rule: evenodd;
      }
    </style>
  </defs>
  <path id="Ellipse_5_copy_2" data-name="Ellipse 5 copy 2" class="cls-1" d="M2784.82,314.773c79.45,56.318,148.73,121.169,202.63,196.689a705.816,705.816,0,0,1,113.59,250.357c42.74,181.214,12.3,368.681-81.83,528.941-46.44,80.4-112.98,148.86-187.17,203.97-74.98,55.25-157.61,97.16-254.4,127.44-96.21,30.01-206.56,48.39-323.51,50.36-114.99,1.3-236.59-13.8-310.35-66.15-76.2-51.58-92.38-136.6-87.07-242.84,5.57-105.95,15.48-229.03-11.75-347.98-23.76-119.6-83.48-234.859-122.66-343.042-18.9-54.256-30.86-107.141-27.99-158.769,2.46-51.558,19.74-101.859,49.7-149.333,62.31-94.368,171.29-169.984,269.57-213.749,100.82-44.749,190.94-57.648,274.07-49.343,83.63,8.171,160.22,37.561,245.05,74.442,83.26,37.606,174.75,82.7,252.12,139.007h0Z" transform="translate(-1693.91 -98.969)"/>
</svg>
