<svg xmlns="http://www.w3.org/2000/svg" viewBox="0 0 1540 1556" width="1540" height="1556">
	<style>
		tspan { white-space:pre }
		.shp0 { fill: #f3f9ff } 
	</style>
	<path id="Ellipse 5" class="shp0" d="M960.59 41.81C1054.95 65.89 1142.88 101.59 1220.28 152.76C1297.66 203.53 1364.5 269.78 1416.08 345.73C1520.96 499.57 1559.77 685.49 1529.37 868.84C1514.84 960.55 1477.27 1048.31 1427.78 1126.37C1377.6 1204.83 1315.49 1273.58 1236 1336.55C1156.94 1399.07 1060.52 1455.79 952.06 1499.57C845.18 1542.02 726.25 1571.52 638.62 1549.1C549 1528.27 503.41 1454.71 470.27 1353.63C437.47 1252.73 402.59 1134.28 334.52 1033.01C269.46 929.87 172.38 843.7 97.01 756.76C59.91 712.89 29.78 667.81 13.95 618.58C-2.24 569.57 -4.14 516.42 6.79 461.36C31.13 350.92 105.74 241.26 181.8 165.16C259.86 87.24 339.37 42.88 419.95 20.83C500.94 -1.53 582.98 -1.56 675.39 2.45C766.6 7.7 868.18 16.99 960.59 41.81L960.59 41.81Z" />
</svg>